<?xml version="1.0" standalone="no"?>
<!DOCTYPE svg PUBLIC "-//W3C//DTD SVG 20010904//EN"
 "http://www.w3.org/TR/2001/REC-SVG-20010904/DTD/svg10.dtd">
<svg version="1.0" xmlns="http://www.w3.org/2000/svg"
 width="182.000000pt" height="186.000000pt" viewBox="0 0 182.000000 186.000000"
 preserveAspectRatio="xMidYMid meet">

<g transform="translate(0.000000,186.000000) scale(0.100000,-0.100000)"
fill="#000000" stroke="none">
<path d="M193 1795 c-2 -6 -2 -290 -1 -630 l3 -620 27 -58 c15 -32 41 -76 58
-97 62 -79 231 -178 486 -288 l120 -52 60 24 c154 61 345 156 434 216 72 49
146 129 173 188 22 47 22 53 25 687 l3 640 -692 0 c-473 0 -693 -3 -696 -10z
m1367 -626 c0 -680 2 -660 -64 -750 -65 -89 -250 -200 -513 -310 l-93 -39 -74
30 c-121 48 -305 139 -388 192 -88 56 -154 125 -189 195 l-24 48 -3 625 -3
625 676 0 675 0 0 -616z"/>
<path d="M240 1690 l0 -60 95 0 95 0 0 60 0 60 -95 0 -95 0 0 -60z"/>
<path d="M460 1690 l0 -60 95 0 95 0 0 60 0 60 -95 0 -95 0 0 -60z"/>
<path d="M1120 1690 l0 -61 91 3 91 3 1 58 2 57 -92 0 -93 0 0 -60z"/>
<path d="M1340 1690 l0 -60 95 0 95 0 0 60 0 60 -95 0 -95 0 0 -60z"/>
<path d="M964 1708 c-4 -7 -3 -8 5 -4 6 4 20 2 29 -6 15 -12 16 -11 3 5 -16
20 -27 22 -37 5z"/>
<path d="M706 1668 c-12 -60 -12 -86 1 -81 8 3 13 23 13 54 0 52 -7 64 -14 27z"/>
<path d="M765 1680 c4 -6 11 -8 16 -5 14 9 11 15 -7 15 -8 0 -12 -5 -9 -10z"/>
<path d="M1020 1614 c-24 -13 -24 -14 -4 -14 12 0 24 7 28 15 3 8 4 15 3 14
-1 -1 -13 -7 -27 -15z"/>
<path d="M240 1520 l0 -60 95 0 95 0 0 60 0 60 -95 0 -95 0 0 -60z"/>
<path d="M460 1520 l0 -60 95 0 95 0 0 60 0 60 -95 0 -95 0 0 -60z"/>
<path d="M1120 1520 l0 -60 89 0 89 0 4 56 c1 31 1 58 -1 60 -2 2 -44 4 -93 4
l-88 0 0 -60z"/>
<path d="M1340 1520 l0 -60 95 0 95 0 0 60 0 60 -95 0 -95 0 0 -60z"/>
<path d="M700 1558 c0 -6 7 -7 15 -4 11 4 19 -3 25 -19 11 -30 20 -33 13 -5
-8 29 -53 53 -53 28z"/>
<path d="M825 1450 c3 -5 8 -10 11 -10 2 0 4 5 4 10 0 6 -5 10 -11 10 -5 0 -7
-4 -4 -10z"/>
<path d="M1023 1445 c0 -8 4 -12 9 -9 5 3 6 10 3 15 -9 13 -12 11 -12 -6z"/>
<path d="M240 1345 l0 -66 93 3 92 3 3 63 3 62 -96 0 -95 0 0 -65z"/>
<path d="M460 1345 l0 -66 93 3 92 3 3 63 3 62 -96 0 -95 0 0 -65z"/>
<path d="M680 1345 l0 -66 93 3 92 3 3 63 3 62 -96 0 -95 0 0 -65z"/>
<path d="M900 1345 l0 -65 95 0 95 0 0 65 0 65 -95 0 -95 0 0 -65z"/>
<path d="M1120 1345 l0 -66 91 3 92 3 0 60 0 60 -92 3 -91 3 0 -66z"/>
<path d="M1340 1345 l0 -65 95 0 95 0 0 65 0 65 -95 0 -95 0 0 -65z"/>
<path d="M320 1236 c0 -2 9 -6 20 -9 11 -3 18 -1 14 4 -5 9 -34 13 -34 5z"/>
<path d="M287 1212 c-18 -20 -22 -32 -9 -32 4 0 12 11 19 25 13 30 12 31 -10
7z"/>
<path d="M778 1223 c6 -2 18 -2 25 0 6 3 1 5 -13 5 -14 0 -19 -2 -12 -5z"/>
<path d="M998 1223 c7 -3 16 -2 19 1 4 3 -2 6 -13 5 -11 0 -14 -3 -6 -6z"/>
<path d="M1138 1223 c6 -2 18 -2 25 0 6 3 1 5 -13 5 -14 0 -19 -2 -12 -5z"/>
<path d="M370 1216 c0 -2 7 -7 16 -10 8 -3 12 -2 9 4 -6 10 -25 14 -25 6z"/>
<path d="M1112 1195 c0 -16 2 -22 5 -12 2 9 2 23 0 30 -3 6 -5 -1 -5 -18z"/>
<path d="M1448 1213 c7 -3 16 -2 19 1 4 3 -2 6 -13 5 -11 0 -14 -3 -6 -6z"/>
<path d="M1040 1189 c0 -5 5 -7 10 -4 6 3 10 8 10 11 0 2 -4 4 -10 4 -5 0 -10
-5 -10 -11z"/>
<path d="M1404 980 c0 -124 2 -174 3 -112 2 61 2 163 0 225 -1 61 -3 11 -3
-113z"/>
<path d="M1334 970 c0 -124 2 -174 3 -112 2 61 2 163 0 225 -1 61 -3 11 -3
-113z"/>
<path d="M534 970 c0 -118 2 -167 3 -107 2 59 2 155 0 215 -1 59 -3 10 -3
-108z"/>
<path d="M551 1164 c0 -11 3 -14 6 -6 3 7 2 16 -1 19 -3 4 -6 -2 -5 -13z"/>
<path d="M894 975 c0 -116 2 -161 3 -102 2 59 2 154 0 210 -1 56 -3 8 -3 -108z"/>
<path d="M1211 1124 c0 -11 3 -14 6 -6 3 7 2 16 -1 19 -3 4 -6 -2 -5 -13z"/>
<path d="M280 1083 c0 -5 3 -13 8 -17 4 -4 7 -12 7 -17 0 -5 4 -9 8 -8 15 2
67 -54 60 -64 -4 -6 -1 -7 6 -2 9 5 -1 22 -36 58 -26 29 -49 54 -50 56 -2 2
-3 0 -3 -6z"/>
<path d="M831 1044 c0 -11 3 -14 6 -6 3 7 2 16 -1 19 -3 4 -6 -2 -5 -13z"/>
<path d="M356 951 c-12 -5 -15 -10 -9 -14 6 -4 16 0 23 8 14 17 13 17 -14 6z"/>
<path d="M421 925 c1 -19 18 -51 18 -35 0 8 -4 22 -9 30 -5 8 -9 11 -9 5z"/>
<path d="M396 887 c3 -10 9 -15 12 -12 3 3 0 11 -7 18 -10 9 -11 8 -5 -6z"/>
<path d="M410 840 c0 -5 5 -10 11 -10 5 0 7 5 4 10 -3 6 -8 10 -11 10 -2 0 -4
-4 -4 -10z"/>
<path d="M832 830 c0 -14 2 -19 5 -12 2 6 2 18 0 25 -3 6 -5 1 -5 -13z"/>
<path d="M412 789 c2 -13 -3 -29 -11 -35 -7 -6 -12 -17 -9 -25 3 -9 12 -2 26
21 23 37 24 51 3 58 -8 3 -12 -4 -9 -19z"/>
<path d="M712 761 c-6 -17 -7 -33 -3 -36 5 -2 11 10 14 28 6 42 2 45 -11 8z"/>
<path d="M1111 764 c0 -11 3 -14 6 -6 3 7 2 16 -1 19 -3 4 -6 -2 -5 -13z"/>
<path d="M821 734 c0 -11 3 -14 6 -6 3 7 2 16 -1 19 -3 4 -6 -2 -5 -13z"/>
<path d="M546 732 c-3 -5 1 -9 9 -9 8 0 12 4 9 9 -3 4 -7 8 -9 8 -2 0 -6 -4
-9 -8z"/>
<path d="M325 720 c-3 -5 -1 -10 4 -10 6 0 11 5 11 10 0 6 -2 10 -4 10 -3 0
-8 -4 -11 -10z"/>
<path d="M242 593 l3 -58 93 -3 92 -3 0 61 0 60 -95 0 -96 0 3 -57z"/>
<path d="M460 590 l0 -60 95 0 95 0 0 60 0 60 -95 0 -95 0 0 -60z"/>
<path d="M680 590 l0 -60 95 0 95 0 0 60 0 60 -95 0 -95 0 0 -60z"/>
<path d="M900 590 l0 -60 95 0 95 0 0 60 0 60 -95 0 -95 0 0 -60z"/>
<path d="M1120 590 l0 -60 95 0 95 0 0 60 0 60 -95 0 -95 0 0 -60z"/>
<path d="M1350 590 l0 -60 89 0 c99 0 101 1 101 83 l0 37 -95 0 -95 0 0 -60z"/>
<path d="M281 458 c15 -28 99 -112 127 -127 22 -12 22 -11 22 69 l0 80 -80 0
c-80 0 -81 0 -69 -22z"/>
<path d="M462 388 l3 -93 80 -42 c44 -23 86 -42 93 -43 10 0 12 30 10 133 l-3
132 -93 3 -93 3 3 -93z"/>
<path d="M680 332 l0 -148 88 -37 c48 -21 90 -37 95 -37 4 0 7 83 7 185 l0
185 -95 0 -95 0 0 -148z"/>
<path d="M900 295 c0 -142 3 -185 13 -185 6 1 48 16 92 34 l80 34 3 151 3 151
-96 0 -95 0 0 -185z"/>
<path d="M1120 340 c0 -77 2 -140 5 -140 14 0 163 80 173 93 9 10 12 43 10 99
l-3 83 -92 3 -93 3 0 -141z"/>
<path d="M1340 400 c0 -50 4 -80 11 -80 15 0 149 133 149 148 0 8 -24 12 -80
12 l-80 0 0 -80z"/>
</g>
</svg>
